<mxfile host="app.diagrams.net" agent="Mozilla/5.0 (Windows NT 10.0; Win64; x64) AppleWebKit/537.36 (KHTML, like Gecko) Chrome/135.0.0.0 Safari/537.36" version="26.3.0">
  <diagram name="Страница — 1" id="OK6e1xaG_8z7GFV_deO0">
    <mxGraphModel dx="1042" dy="657" grid="1" gridSize="10" guides="1" tooltips="1" connect="1" arrows="1" fold="1" page="1" pageScale="1" pageWidth="827" pageHeight="1169" math="0" shadow="0">
      <root>
        <mxCell id="0" />
        <mxCell id="1" parent="0" />
        <mxCell id="4yhGHjh_1vknfFHyq1ti-29" value="" style="rounded=1;whiteSpace=wrap;html=1;shadow=1;" vertex="1" parent="1">
          <mxGeometry x="10" y="615" width="700" height="130" as="geometry" />
        </mxCell>
        <mxCell id="4yhGHjh_1vknfFHyq1ti-4" value="" style="edgeStyle=orthogonalEdgeStyle;rounded=0;orthogonalLoop=1;jettySize=auto;html=1;" edge="1" parent="1" source="4yhGHjh_1vknfFHyq1ti-1" target="4yhGHjh_1vknfFHyq1ti-2">
          <mxGeometry relative="1" as="geometry" />
        </mxCell>
        <mxCell id="4yhGHjh_1vknfFHyq1ti-1" value="&lt;font style=&quot;font-size: 24px;&quot;&gt;foo&lt;/font&gt;" style="rounded=0;whiteSpace=wrap;html=1;" vertex="1" parent="1">
          <mxGeometry x="40" y="80" width="120" height="80" as="geometry" />
        </mxCell>
        <mxCell id="4yhGHjh_1vknfFHyq1ti-6" value="" style="edgeStyle=orthogonalEdgeStyle;rounded=0;orthogonalLoop=1;jettySize=auto;html=1;" edge="1" parent="1" source="4yhGHjh_1vknfFHyq1ti-2" target="4yhGHjh_1vknfFHyq1ti-5">
          <mxGeometry relative="1" as="geometry" />
        </mxCell>
        <mxCell id="4yhGHjh_1vknfFHyq1ti-2" value="&lt;span style=&quot;font-size: 28px;&quot;&gt;Объект мутабельный и функция его &quot;портит&quot;&lt;/span&gt;" style="rounded=1;whiteSpace=wrap;html=1;" vertex="1" parent="1">
          <mxGeometry x="240" y="40" width="280" height="160" as="geometry" />
        </mxCell>
        <mxCell id="4yhGHjh_1vknfFHyq1ti-5" value="&lt;font style=&quot;font-size: 24px;&quot;&gt;foo*&lt;/font&gt;" style="rounded=0;whiteSpace=wrap;html=1;fillColor=#f8cecc;strokeColor=#b85450;" vertex="1" parent="1">
          <mxGeometry x="600" y="80" width="120" height="80" as="geometry" />
        </mxCell>
        <mxCell id="4yhGHjh_1vknfFHyq1ti-7" value="" style="edgeStyle=orthogonalEdgeStyle;rounded=0;orthogonalLoop=1;jettySize=auto;html=1;" edge="1" parent="1" source="4yhGHjh_1vknfFHyq1ti-8" target="4yhGHjh_1vknfFHyq1ti-10">
          <mxGeometry relative="1" as="geometry" />
        </mxCell>
        <mxCell id="4yhGHjh_1vknfFHyq1ti-13" style="edgeStyle=orthogonalEdgeStyle;rounded=0;orthogonalLoop=1;jettySize=auto;html=1;entryX=0;entryY=0.5;entryDx=0;entryDy=0;" edge="1" parent="1" source="4yhGHjh_1vknfFHyq1ti-8" target="4yhGHjh_1vknfFHyq1ti-12">
          <mxGeometry relative="1" as="geometry">
            <Array as="points">
              <mxPoint x="120" y="440" />
            </Array>
          </mxGeometry>
        </mxCell>
        <mxCell id="4yhGHjh_1vknfFHyq1ti-8" value="&lt;font style=&quot;font-size: 24px;&quot;&gt;foo&lt;/font&gt;" style="rounded=0;whiteSpace=wrap;html=1;" vertex="1" parent="1">
          <mxGeometry x="40" y="280" width="120" height="80" as="geometry" />
        </mxCell>
        <mxCell id="4yhGHjh_1vknfFHyq1ti-9" value="" style="edgeStyle=orthogonalEdgeStyle;rounded=0;orthogonalLoop=1;jettySize=auto;html=1;" edge="1" parent="1" source="4yhGHjh_1vknfFHyq1ti-10" target="4yhGHjh_1vknfFHyq1ti-11">
          <mxGeometry relative="1" as="geometry" />
        </mxCell>
        <mxCell id="4yhGHjh_1vknfFHyq1ti-10" value="&lt;span style=&quot;font-size: 28px;&quot;&gt;Функция возвращает новый объект с + *&lt;/span&gt;" style="rounded=1;whiteSpace=wrap;html=1;" vertex="1" parent="1">
          <mxGeometry x="200" y="240" width="280" height="160" as="geometry" />
        </mxCell>
        <mxCell id="4yhGHjh_1vknfFHyq1ti-11" value="&lt;font style=&quot;font-size: 24px;&quot;&gt;foo = foo + *&lt;/font&gt;" style="rounded=0;whiteSpace=wrap;html=1;fillColor=#dae8fc;strokeColor=#6c8ebf;" vertex="1" parent="1">
          <mxGeometry x="600" y="280" width="160" height="80" as="geometry" />
        </mxCell>
        <mxCell id="4yhGHjh_1vknfFHyq1ti-12" value="&lt;font style=&quot;font-size: 24px;&quot;&gt;foo&lt;/font&gt;" style="rounded=0;whiteSpace=wrap;html=1;" vertex="1" parent="1">
          <mxGeometry x="600" y="400" width="160" height="80" as="geometry" />
        </mxCell>
        <mxCell id="4yhGHjh_1vknfFHyq1ti-15" value="&lt;font style=&quot;font-size: 16px;&quot;&gt;Новый объект с внесенными изменениями&lt;/font&gt;" style="text;html=1;align=center;verticalAlign=middle;resizable=0;points=[];autosize=1;strokeColor=none;fillColor=none;" vertex="1" parent="1">
          <mxGeometry x="500" y="240" width="340" height="30" as="geometry" />
        </mxCell>
        <mxCell id="4yhGHjh_1vknfFHyq1ti-16" value="void" style="rounded=0;whiteSpace=wrap;html=1;fontSize=24;" vertex="1" parent="1">
          <mxGeometry x="40" y="640" width="80" height="80" as="geometry" />
        </mxCell>
        <mxCell id="4yhGHjh_1vknfFHyq1ti-17" value="main" style="rounded=0;whiteSpace=wrap;html=1;fontSize=24;" vertex="1" parent="1">
          <mxGeometry x="120" y="640" width="80" height="80" as="geometry" />
        </mxCell>
        <mxCell id="4yhGHjh_1vknfFHyq1ti-18" value="(" style="rounded=0;whiteSpace=wrap;html=1;fontSize=24;" vertex="1" parent="1">
          <mxGeometry x="200" y="640" width="80" height="80" as="geometry" />
        </mxCell>
        <mxCell id="4yhGHjh_1vknfFHyq1ti-19" value="void" style="rounded=0;whiteSpace=wrap;html=1;fontSize=24;" vertex="1" parent="1">
          <mxGeometry x="280" y="640" width="80" height="80" as="geometry" />
        </mxCell>
        <mxCell id="4yhGHjh_1vknfFHyq1ti-20" value=")" style="rounded=0;whiteSpace=wrap;html=1;fontSize=24;fillColor=#d5e8d4;strokeColor=#82b366;" vertex="1" parent="1">
          <mxGeometry x="360" y="640" width="80" height="80" as="geometry" />
        </mxCell>
        <mxCell id="4yhGHjh_1vknfFHyq1ti-21" value="{" style="rounded=0;whiteSpace=wrap;html=1;fontSize=24;" vertex="1" parent="1">
          <mxGeometry x="440" y="640" width="80" height="80" as="geometry" />
        </mxCell>
        <mxCell id="4yhGHjh_1vknfFHyq1ti-22" value="expr" style="rounded=0;whiteSpace=wrap;html=1;fontSize=24;" vertex="1" parent="1">
          <mxGeometry x="520" y="640" width="80" height="80" as="geometry" />
        </mxCell>
        <mxCell id="4yhGHjh_1vknfFHyq1ti-23" value="}" style="rounded=0;whiteSpace=wrap;html=1;fontSize=24;" vertex="1" parent="1">
          <mxGeometry x="600" y="640" width="80" height="80" as="geometry" />
        </mxCell>
        <mxCell id="4yhGHjh_1vknfFHyq1ti-27" value="" style="shape=flexArrow;endArrow=classic;html=1;rounded=0;width=17;endSize=8.87;" edge="1" parent="1">
          <mxGeometry width="50" height="50" relative="1" as="geometry">
            <mxPoint x="399.5" y="780" as="sourcePoint" />
            <mxPoint x="400.5" y="720" as="targetPoint" />
          </mxGeometry>
        </mxCell>
        <mxCell id="4yhGHjh_1vknfFHyq1ti-28" value="}" style="rounded=0;whiteSpace=wrap;html=1;fontSize=24;fillColor=#fff2cc;strokeColor=#d6b656;" vertex="1" parent="1">
          <mxGeometry x="360" y="560" width="80" height="80" as="geometry" />
        </mxCell>
        <mxCell id="4yhGHjh_1vknfFHyq1ti-32" value="" style="edgeStyle=orthogonalEdgeStyle;rounded=0;orthogonalLoop=1;jettySize=auto;html=1;" edge="1" parent="1" source="4yhGHjh_1vknfFHyq1ti-30" target="4yhGHjh_1vknfFHyq1ti-31">
          <mxGeometry relative="1" as="geometry" />
        </mxCell>
        <mxCell id="4yhGHjh_1vknfFHyq1ti-30" value="expr" style="rounded=0;whiteSpace=wrap;html=1;fontSize=24;" vertex="1" parent="1">
          <mxGeometry x="120" y="840" width="80" height="80" as="geometry" />
        </mxCell>
        <mxCell id="4yhGHjh_1vknfFHyq1ti-34" value="" style="edgeStyle=orthogonalEdgeStyle;rounded=0;orthogonalLoop=1;jettySize=auto;html=1;" edge="1" parent="1" source="4yhGHjh_1vknfFHyq1ti-31" target="4yhGHjh_1vknfFHyq1ti-33">
          <mxGeometry relative="1" as="geometry" />
        </mxCell>
        <mxCell id="4yhGHjh_1vknfFHyq1ti-31" value="expr" style="rounded=0;whiteSpace=wrap;html=1;fontSize=24;" vertex="1" parent="1">
          <mxGeometry x="280" y="840" width="80" height="80" as="geometry" />
        </mxCell>
        <mxCell id="4yhGHjh_1vknfFHyq1ti-33" value="expr" style="rounded=0;whiteSpace=wrap;html=1;fontSize=24;" vertex="1" parent="1">
          <mxGeometry x="440" y="840" width="80" height="80" as="geometry" />
        </mxCell>
      </root>
    </mxGraphModel>
  </diagram>
</mxfile>
